# xmcd
#
# Track frame offsets:
# 150
# 10592
# 26022
# 37710
# 56089
# 69332
# 81387
# 109247
# 118620
# 133932
#
# Disc length: 1965 seconds
#
#
# Revision: 0
# Processed by: cddbd v1.5.1PL2 Copyright (c) Steve Scherf et al.
# Submitted via: FreeRIP 2.944 
#
DISCID=7f07ab0a
DTITLE=Carolina Sunshine - Walking In Gods Sunshine
DYEAR=1998
DGENRE=Gospel
TTITLE0=Walking In Gods Sunshine
TTITLE1=He Took Your Pace
TTITLE2=Jesus Is All That I Need
TTITLE3=God Has Been So Good to Me
TTITLE4=Home In That Rock
TTITLE5=OverIn the Gloryland
TTITLE6=Wayfaring Stranger
TTITLE7=Long Lonesome Road
TTITLE8=Just One Rose
TTITLE9=Let Me walk With You Jesus
EXTD=
EXTT0=
EXTT1=
EXTT2=
EXTT3=
EXTT4=
EXTT5=
EXTT6=
EXTT7=
EXTT8=
EXTT9=
PLAYORDER=
